<svg width="16" height="16" viewBox="0 0 16 16" fill="none" xmlns="http://www.w3.org/2000/svg">
<g clip-path="url(#clip0_447_988)">
<mask id="mask0_447_988" style="mask-type:luminance" maskUnits="userSpaceOnUse" x="0" y="0" width="16" height="16">
<path d="M16 0H0V16H16V0Z" fill="white"/>
</mask>
<g mask="url(#mask0_447_988)">
<path d="M4.60016 13.7335C5.60016 14.3335 6.80016 14.6668 8.00016 14.6668C11.6668 14.6668 14.6668 11.6668 14.6668 8.00016C14.6668 4.3335 11.6668 1.3335 8.00016 1.3335C4.3335 1.3335 1.3335 4.3335 1.3335 8.00016C1.3335 9.20016 1.66683 10.3335 2.20016 11.3335L1.62712 13.5375C1.49731 14.0368 1.95944 14.488 2.45549 14.3462L4.60016 13.7335Z" stroke="#AEAEAE" stroke-miterlimit="10" stroke-linecap="round" stroke-linejoin="round"/>
<path d="M11 9.899C11 10.007 10.9759 10.118 10.9249 10.226C10.8738 10.334 10.8077 10.436 10.7206 10.532C10.5733 10.694 10.4111 10.811 10.2279 10.886C10.0476 10.961 9.85227 11 9.64193 11C9.33553 11 9.008 10.928 8.66247 10.781C8.317 10.634 7.97147 10.436 7.62893 10.187C7.2834 9.935 6.95593 9.656 6.64347 9.347C6.334 9.035 6.05458 8.708 5.80521 8.366C5.55884 8.024 5.36054 7.682 5.21633 7.343C5.07211 7.001 5 6.674 5 6.362C5 6.158 5.03605 5.963 5.10816 5.783C5.18027 5.6 5.29444 5.432 5.45368 5.282C5.64597 5.093 5.85629 5 6.07862 5C6.16275 5 6.24687 5.018 6.32198 5.054C6.4001 5.09 6.46921 5.144 6.52329 5.222L7.22033 6.203C7.2744 6.278 7.31347 6.347 7.34053 6.413C7.36753 6.476 7.3826 6.539 7.3826 6.596C7.3826 6.668 7.36153 6.74 7.31947 6.809C7.2804 6.878 7.22333 6.95 7.1512 7.022L6.92287 7.259C6.88987 7.292 6.8748 7.331 6.8748 7.379C6.8748 7.403 6.8778 7.424 6.8838 7.448C6.89287 7.472 6.90187 7.49 6.90787 7.508C6.96193 7.607 7.05507 7.736 7.18727 7.892C7.32247 8.048 7.46667 8.207 7.62293 8.366C7.7852 8.525 7.9414 8.672 8.10067 8.807C8.25687 8.939 8.38607 9.029 8.4882 9.083C8.50327 9.089 8.52127 9.098 8.54233 9.107C8.56633 9.116 8.5904 9.119 8.6174 9.119C8.66853 9.119 8.70753 9.101 8.7406 9.068L8.96893 8.843C9.04407 8.768 9.1162 8.711 9.18527 8.675C9.2544 8.633 9.32347 8.612 9.3986 8.612C9.45567 8.612 9.5158 8.624 9.58187 8.651C9.648 8.678 9.71707 8.717 9.7922 8.768L10.7867 9.473C10.8648 9.527 10.9189 9.59 10.9519 9.665C10.982 9.74 11 9.815 11 9.899Z" stroke="#AEAEAE" stroke-miterlimit="10"/>
</g>
</g>
<defs>
<clipPath id="clip0_447_988">
<rect width="16" height="16" fill="white"/>
</clipPath>
</defs>
</svg>
