<svg width="16" height="16" viewBox="0 0 16 16" fill="none" xmlns="http://www.w3.org/2000/svg">
<g clip-path="url(#clip0_447_997)">
<mask id="mask0_447_997" style="mask-type:luminance" maskUnits="userSpaceOnUse" x="0" y="0" width="16" height="16">
<path d="M16 0H0V16H16V0Z" fill="white"/>
</mask>
<g mask="url(#mask0_447_997)">
<path d="M4.66667 8C2 8 2 9.19333 2 10.6667V11.3333C2 13.1733 2 14.6667 5.33333 14.6667H10.6667C13.3333 14.6667 14 13.1733 14 11.3333V10.6667C14 9.19333 14 8 11.3333 8C10.6667 8 10.48 8.14 10.1333 8.4L9.45333 9.12C8.66667 9.96 7.33333 9.96 6.54 9.12L5.86667 8.4C5.52 8.14 5.33333 8 4.66667 8Z" stroke="#AEAEAE" stroke-miterlimit="10" stroke-linecap="round" stroke-linejoin="round"/>
<path d="M12.6668 8.00016V4.00016C12.6668 2.52683 12.6668 1.3335 10.0002 1.3335H6.00016C3.3335 1.3335 3.3335 2.52683 3.3335 4.00016V8.00016" stroke="#AEAEAE" stroke-miterlimit="10" stroke-linecap="round" stroke-linejoin="round"/>
</g>
</g>
<defs>
<clipPath id="clip0_447_997">
<rect width="16" height="16" fill="white"/>
</clipPath>
</defs>
</svg>
