<svg width="56" height="56" viewBox="0 0 56 56" fill="none" xmlns="http://www.w3.org/2000/svg">
<path d="M30.1875 4.60117L34.2883 20.1015C34.3907 20.488 34.5936 20.8404 34.8764 21.123C35.1592 21.4056 35.5118 21.6083 35.8983 21.7103L51.3998 25.8112C53.6445 26.4062 53.6445 29.5912 51.3998 30.1862L35.8972 34.2882C35.5107 34.3905 35.1583 34.5934 34.8757 34.8762C34.5931 35.159 34.3904 35.5116 34.2883 35.8982L30.1875 51.3997C29.5925 53.6443 26.4075 53.6443 25.8125 51.3997L21.7117 35.897C21.6093 35.5105 21.4064 35.1581 21.1236 34.8755C20.8408 34.5929 20.4882 34.3903 20.1017 34.2882L4.60135 30.1873C2.35668 29.5923 2.35668 26.4073 4.60135 25.8123L20.104 21.7115C20.4905 21.6091 20.8429 21.4062 21.1255 21.1234C21.4081 20.8407 21.6108 20.488 21.7128 20.1015L25.8137 4.6C26.4087 2.35534 29.5937 2.35534 30.1887 4.6" stroke="white" stroke-width="1.5" stroke-linecap="round" stroke-linejoin="round"/>
</svg>
