<svg width="56" height="56" viewBox="0 0 56 56" fill="none" xmlns="http://www.w3.org/2000/svg">
<g clip-path="url(#clip0_749_353)">
<path d="M35.392 7.00176H20.608C18.8208 7.00104 17.051 7.35248 15.3997 8.03598C13.7484 8.71949 12.248 9.72168 10.9841 10.9853C9.72026 12.2489 8.71777 13.7491 8.03393 15.4003C7.35009 17.0515 6.9983 18.8212 6.99866 20.6084V35.3924C6.99794 37.1798 7.34947 38.9498 8.03315 40.6013C8.71683 42.2528 9.71926 43.7534 10.9831 45.0173C12.247 46.2812 13.7476 47.2836 15.3991 47.9673C17.0506 48.651 18.8206 49.0025 20.608 49.0018H35.392C37.1794 49.0025 38.9495 48.651 40.601 47.9673C42.2524 47.2836 43.753 46.2812 45.0169 45.0173C46.2808 43.7534 47.2832 42.2528 47.9669 40.6013C48.6506 38.9498 49.0021 37.1798 49.0014 35.3924V20.6084C49.0021 18.821 48.6506 17.051 47.9669 15.3995C47.2832 13.748 46.2808 12.2474 45.0169 10.9835C43.753 9.71963 42.2524 8.71719 40.601 8.03351C38.9495 7.34983 37.1794 6.99831 35.392 6.99902V7.00176Z" stroke="white" stroke-width="1.5"/>
<path d="M48.7774 37.8017H53.2C53.9426 37.8017 54.6548 37.5067 55.1799 36.9816C55.705 36.4565 56 35.7443 56 35.0017V21.0017C56 20.2591 55.705 19.5469 55.1799 19.0218C54.6548 18.4967 53.9426 18.2017 53.2 18.2017H48.7746M7.22537 37.8017H2.8C2.4323 37.8017 2.0682 37.7292 1.72849 37.5885C1.38877 37.4478 1.0801 37.2416 0.820101 36.9816C0.560097 36.7216 0.35385 36.4129 0.213137 36.0732C0.072424 35.7335 0 35.3694 0 35.0017V21.0017C0 20.2591 0.294999 19.5469 0.820101 19.0218C1.3452 18.4967 2.05739 18.2017 2.8 18.2017H7.22537" stroke="white" stroke-width="1.5"/>
<path d="M2.77264 18.2015V7.00146M53.2 18.2015L53.1726 7.00146M19.5726 19.1576V26.5277M36.3726 19.1576V26.5277M22.3726 37.8015H33.5726" stroke="white" stroke-width="1.5" stroke-linecap="round" stroke-linejoin="round"/>
</g>
<defs>
<clipPath id="clip0_749_353">
<rect width="56" height="56" fill="white"/>
</clipPath>
</defs>
</svg>
