<svg width="56" height="56" viewBox="0 0 56 56" fill="none" xmlns="http://www.w3.org/2000/svg">
<path d="M3.23302 52.5219L21.3178 34.4371M44.0916 26.3949L38.678 42.6355C38.5916 42.8958 38.4437 43.1314 38.2468 43.3224C38.0499 43.5134 37.8099 43.654 37.547 43.7324L4.36119 53.5961C4.06221 53.6849 3.74461 53.6899 3.44294 53.6108C3.14127 53.5316 2.8671 53.3712 2.65025 53.147C2.43341 52.9229 2.28221 52.6435 2.2131 52.3394C2.14399 52.0353 2.15963 51.718 2.2583 51.4221L13.0342 19.1002C13.1114 18.8681 13.2377 18.6554 13.4044 18.4764C13.5711 18.2974 13.7743 18.1564 14.0004 18.063L29.3088 11.76C29.62 11.6314 29.9624 11.5979 30.2926 11.6637C30.6228 11.7294 30.9262 11.8915 31.1645 12.1294L43.6795 24.6501C43.9034 24.874 44.0606 25.1558 44.1334 25.464C44.2061 25.7722 44.1917 26.0945 44.0916 26.3949Z" stroke="white" stroke-width="1.5" stroke-linecap="round" stroke-linejoin="round"/>
<path d="M44.427 25.3949L52.4634 17.3556C53.5289 16.2898 54.1275 14.8444 54.1275 13.3374C54.1275 11.8303 53.5289 10.385 52.4634 9.31917L46.4389 3.289C45.9112 2.761 45.2845 2.34215 44.5948 2.05638C43.9051 1.77062 43.1659 1.62354 42.4193 1.62354C41.6728 1.62354 40.9335 1.77062 40.2438 2.05638C39.5541 2.34215 38.9275 2.761 38.3997 3.289L30.3632 11.3283M27.3453 28.4071C26.9494 28.0114 26.4793 27.6975 25.9621 27.4834C25.4448 27.2693 24.8905 27.1591 24.3306 27.1593C23.7708 27.1594 23.2165 27.2698 22.6993 27.4841C22.1822 27.6985 21.7123 28.0126 21.3165 28.4086C20.9208 28.8045 20.6069 29.2745 20.3928 29.7918C20.1787 30.309 20.0685 30.8634 20.0687 31.4232C20.0688 31.9831 20.1792 32.5374 20.3935 33.0545C20.6079 33.5717 20.922 34.0416 21.318 34.4373C22.1176 35.2366 23.202 35.6855 24.3326 35.6852C25.4633 35.6849 26.5474 35.2355 27.3467 34.4359C28.146 33.6362 28.5949 32.5518 28.5946 31.4212C28.5943 30.2906 28.145 29.2064 27.3453 28.4071Z" stroke="white" stroke-width="1.5" stroke-linecap="round" stroke-linejoin="round"/>
</svg>
