<svg width="56" height="56" viewBox="0 0 56 56" fill="none" xmlns="http://www.w3.org/2000/svg">
<g clip-path="url(#clip0_712_378)">
<path d="M2.625 56H27.125C27.3571 56 27.5796 55.9078 27.7437 55.7437C27.9078 55.5796 28 55.3571 28 55.125C28 54.8929 27.9078 54.6704 27.7437 54.5063C27.5796 54.3422 27.3571 54.25 27.125 54.25H2.625C2.39294 54.25 2.17038 54.1578 2.00628 53.9937C1.84219 53.8296 1.75 53.6071 1.75 53.375V2.625C1.75 2.39294 1.84219 2.17038 2.00628 2.00628C2.17038 1.84219 2.39294 1.75 2.625 1.75H39.375C39.6071 1.75 39.8296 1.84219 39.9937 2.00628C40.1578 2.17038 40.25 2.39294 40.25 2.625V11.375C40.25 11.6071 40.3422 11.8296 40.5063 11.9937C40.6704 12.1578 40.8929 12.25 41.125 12.25C41.3571 12.25 41.5796 12.1578 41.7437 11.9937C41.9078 11.8296 42 11.6071 42 11.375V2.625C42 1.17775 40.8223 0 39.375 0H2.625C1.17775 0 0 1.17775 0 2.625V53.375C0 54.8223 1.17775 56 2.625 56Z" fill="white"/>
<path d="M31.5 18.375V53.375C31.5 54.8223 32.6777 56 34.125 56H53.375C54.8223 56 56 54.8223 56 53.375V18.375C56 16.9277 54.8223 15.75 53.375 15.75H34.125C32.6777 15.75 31.5 16.9277 31.5 18.375ZM54.25 18.375V53.375C54.25 53.6071 54.1578 53.8296 53.9937 53.9937C53.8296 54.1578 53.6071 54.25 53.375 54.25H34.125C33.8929 54.25 33.6704 54.1578 33.5063 53.9937C33.3422 53.8296 33.25 53.6071 33.25 53.375V18.375C33.25 18.1429 33.3422 17.9204 33.5063 17.7563C33.6704 17.5922 33.8929 17.5 34.125 17.5H53.375C53.6071 17.5 53.8296 17.5922 53.9937 17.7563C54.1578 17.9204 54.25 18.1429 54.25 18.375Z" fill="white"/>
<path d="M21 50.75C21.9665 50.75 22.75 49.9665 22.75 49C22.75 48.0335 21.9665 47.25 21 47.25C20.0335 47.25 19.25 48.0335 19.25 49C19.25 49.9665 20.0335 50.75 21 50.75Z" fill="white"/>
<path d="M43.75 50.75C44.7165 50.75 45.5 49.9665 45.5 49C45.5 48.0335 44.7165 47.25 43.75 47.25C42.7835 47.25 42 48.0335 42 49C42 49.9665 42.7835 50.75 43.75 50.75Z" fill="white"/>
</g>
<defs>
<clipPath id="clip0_712_378">
<rect width="56" height="56" fill="white"/>
</clipPath>
</defs>
</svg>
