<svg width="24" height="24" viewBox="0 0 24 24" fill="none" xmlns="http://www.w3.org/2000/svg">
<path fill-rule="evenodd" clip-rule="evenodd" d="M6.45926 3.2552C5.77778 3.62852 5.16593 4.0848 4.6237 4.62404C3.40741 5.84326 2.61185 7.43728 2.24296 9.33796C5.55407 9.62684 8.62815 9.10093 11.24 8.18244C9.91709 6.29707 8.30346 4.63349 6.45926 3.25371M2.02074 11.1764C2.00691 11.447 2 11.7216 2 12.0001C2 14.3541 2.5037 16.3777 3.51407 17.9806C6.60741 15.2 9.69185 13.5423 12.8074 12.6964C13.0563 12.6282 13.3062 12.5655 13.557 12.5082C13.2015 11.6046 12.7719 10.6905 12.2533 9.78239C8.98879 11.003 5.49286 11.4793 2.02074 11.1764ZM4.67556 19.4265C6.4237 21.1435 8.93037 21.9998 12 21.9998C12.9406 22.0053 13.8794 21.9144 14.8015 21.7287C14.8015 21.6842 14.8049 21.6398 14.8119 21.5953C15.0859 19.7243 14.9822 17.1051 14.157 14.2711C13.8686 14.3343 13.5807 14.405 13.2933 14.483C10.4637 15.2533 7.60593 16.7733 4.67556 19.4265ZM16.7304 21.1361C17.7175 20.7254 18.616 20.1278 19.3763 19.3761C20.7185 18.034 21.5452 16.2355 21.8578 14.0726C19.8711 13.8074 17.923 13.7393 15.9956 13.9645C16.7467 16.6459 16.9141 19.1628 16.7304 21.1361ZM22 12.2223V12.0001C22 9.12611 21.2489 6.74693 19.7452 5.02106C18.4948 6.4062 16.4978 7.8906 13.9763 9.06537C14.5526 10.0994 15.0267 11.1409 15.4104 12.1705C17.6119 11.8742 19.8059 11.9379 21.9985 12.2238M18.3733 3.77666C16.7126 2.59299 14.5511 2.00042 12 2.00042C10.7962 1.99084 9.59667 2.14433 8.43407 2.4567C10.1936 3.89699 11.7325 5.58752 13.0015 7.47432C15.3911 6.38991 17.2593 5.01514 18.3733 3.77666Z" fill="black"/>
</svg>
